<mxfile host="app.diagrams.net" modified="2024-03-25T02:49:09.512Z" agent="Mozilla/5.0 (Macintosh; Intel Mac OS X 10_15_7) AppleWebKit/537.36 (KHTML, like Gecko) Chrome/116.0.0.0 Safari/537.36" version="23.1.5" etag="Lu-1aS2jc8Npkb3VNlaP" type="github">
  <diagram name="第 1 页" id="aqraToOvhc0_YcbYmxUj">
    <mxGraphModel>
      <root>
        <mxCell id="0" />
        <mxCell id="1" parent="0" />
      </root>
    </mxGraphModel>
  </diagram>
</mxfile>
